<svg xmlns="http://www.w3.org/2000/svg" xmlns:xlink="http://www.w3.org/1999/xlink" xml:space="preserve" version="1.1" shape-rendering="geometricPrecision" text-rendering="geometricPrecision" image-rendering="optimizeQuality" fill-rule="evenodd" clip-rule="evenodd" viewBox="0 0 5000000 6250000" x="0px" y="0px"><g><path fill="black" fill-rule="nonzero" d="M1498157 3272229c0,4488 -590,8740 -1535,12993 5669,108546 15945,210597 33899,305560 36615,193117 105475,356468 232920,483913 9804,9804 4134,4370 8386,8504 194770,190282 449424,285954 703015,286309 253354,236 505882,-94728 696990,-285954 10276,-10276 3898,-3662 8268,-8150 143036,-146343 220283,-314419 260678,-494071 40631,-180360 44765,-373949 40631,-569545 -14882,-181778 455920,-1160824 518993,-1313073 20906,-50435 19252,-104885 -237,-152013 -19016,-45946 -55041,-84806 -103940,-106066 -2244,-827 -4488,-1772 -6614,-2835 -49608,-19489 -102641,-17363 -148706,1654 -47009,19370 -86577,56694 -107483,107247l-414226 999481c-11103,26693 -37797,42166 -65081,40276l-95082 -236c-36024,0 -65199,-29174 -65199,-65317 0,-4016 355,-8032 1063,-11929l-118 -118 255127 -1354295c10157,-53624 -2717,-106657 -31419,-148706 -28111,-41103 -71223,-71813 -123075,-82561 -2716,-355 -5433,-945 -8031,-1536 -52207,-8740 -103586,4134 -144572,32127 -42048,28820 -73230,73349 -83388,126973l-273316 1451266c-6142,32718 -35670,55041 -68034,53269l-49135 -118c-34371,0 -62600,-26693 -65081,-60474l-236 0 -132406 -1710763c-4252,-54450 -30355,-102168 -68978,-135240 -38624,-33072 -90003,-51498 -144572,-47246l0 0c-54332,4252 -102050,30237 -135122,68979 -33072,38623 -51616,89885 -47364,144453l129335 1669187c2598,36143 -24450,67561 -60474,70159 -3426,355 -6733,237 -10040,0l-65317 -118c-29174,0 -53860,-19134 -62246,-45592l-236 0 -433597 -1373665c-16418,-51970 -52679,-92601 -97798,-115988 -45238,-23505 -99334,-29883 -151304,-13583l-118 118c-51970,16418 -92483,52679 -115988,97798 -23505,45238 -29883,99216 -13465,151304 57521,182368 506118,1546348 503638,1608240 193116,-222172 545332,-217212 665808,-215440l0 -236 539545 0c36143,0 65553,29410 65553,65553l-118 2244c472,12284 709,24922 472,37797 -2362,187801 -79372,323041 -196896,413635 -112680,86814 -261858,130280 -416469,138193l-591 78900c112681,19371 215912,71814 293986,151186 86223,87759 141264,207763 143744,351744 473,36024 -28229,65671 -64372,66261 -36025,591 -65671,-28229 -66262,-64253 -1890,-107839 -42639,-197133 -106420,-262095 -69333,-70514 -166187,-112799 -270599,-119414l0 -118c-34372,-2126 -61538,-30827 -61183,-65671l1653 -201502c354,-36025 30001,-64963 66026,-64491 17363,118 35434,-118 53978,-1063l354 0c130752,-6024 255245,-41103 346310,-111263 81499,-62837 136776,-155910 145044,-284418l-473755 0 0 -355 -1181 0c-139256,-2008 -653406,-9685 -664037,464188zm-96262 342649c-39687,-209535 -43703,-448243 -40986,-711637 -12048,-186148 -407021,-1310120 -491945,-1579184 -27284,-86577 -16772,-176344 22206,-251228 38505,-74057 104767,-133705 189927,-161462 1890,-708 3780,-1299 5788,-1771 85632,-26222 174218,-15473 248275,23032 75003,38977 135123,106420 162407,192880l355050 1124799 -108074 -1395516c-6969,-90239 23623,-175163 78546,-239299 54214,-63309 132051,-106303 220873,-114216 2480,-355 4843,-591 7323,-591 88940,-6024 172683,24568 235992,78782 63191,54096 106302,132051 114216,220873 236,2244 472,4488 591,6851l109491 1413942 219338 -1164367c16772,-89176 68388,-163352 138075,-210952 69687,-47600 157446,-68742 246504,-51970l118 0c89176,16772 163352,68506 210951,138193 47600,69687 68743,157446 51971,246622l-221464 1175588 355405 -857743c34725,-83625 100515,-145635 178706,-177880 77837,-32363 168076,-34962 251701,-354l236 0c83625,34725 145635,100515 177998,178706 32245,77955 34962,168195 236,251937 -57403,138548 -510606,1202400 -509543,1248229l0 236c4724,208235 945,415525 -43466,612657 -45474,201620 -132642,390839 -294458,556553 -10158,10394 -4961,5315 -9331,9685 -216503,216503 -502693,324105 -789710,323751 -286663,-237 -574270,-108311 -794199,-323042 -10275,-10158 -6141,-5906 -9921,-9567 -147997,-148115 -227369,-334263 -268827,-552537z"/></g><text x="0" y="5000015" fill="#000000" font-size="5px" font-weight="bold" font-family="'Helvetica Neue', Helvetica, Arial-Unicode, Arial, Sans-serif">Created by abeldb</text><text x="0" y="5000020" fill="#000000" font-size="5px" font-weight="bold" font-family="'Helvetica Neue', Helvetica, Arial-Unicode, Arial, Sans-serif">from the Noun Project</text></svg>