<svg xmlns="http://www.w3.org/2000/svg" xmlns:xlink="http://www.w3.org/1999/xlink" xml:space="preserve" version="1.1" shape-rendering="geometricPrecision" text-rendering="geometricPrecision" image-rendering="optimizeQuality" fill-rule="evenodd" clip-rule="evenodd" viewBox="0 0 5000000 6250000" x="0px" y="0px"><g><path fill="black" fill-rule="nonzero" d="M3380185 2343027c-54805,0 -104767,22441 -141028,58702 -36261,36261 -58821,86223 -58821,141146l0 443755c0,54804 22560,104767 58821,141028 36261,36261 86223,58702 141028,58702 54923,0 104885,-22441 141146,-58702 36261,-36261 58703,-86224 58703,-141028l0 -443755c0,-54923 -22442,-104885 -58703,-141146 -36261,-36261 -86223,-58702 -141146,-58702zm-1800647 934635c0,4371 -591,8741 -1536,12875 5670,110318 16182,214022 34608,310285 37088,193353 106302,356822 233984,484504 9803,9803 4134,4488 8386,8622 196069,191463 452376,287844 707620,288080 255008,354 509190,-95318 701715,-287726 10276,-10394 3898,-3661 8268,-8150 143863,-147406 221700,-316663 262331,-497378 24214,-107365 35553,-219455 39923,-333790 -54687,39805 -122012,63428 -194652,63428 -91302,0 -174218,-37324 -234338,-97444l-1417 -1418c-23977,52797 -61065,96263 -105594,128744 -42875,31301 -92720,52089 -144099,60593 -51970,8622 -105830,4843 -156147,-12993 -64844,-23032 -123193,-68742 -163351,-140437 -98862,51616 -214850,78782 -334027,84924l-708 79490c113389,19489 217447,72286 295993,152131 86814,88350 142209,209062 144690,353988 472,36261 -28466,66144 -64727,66734 -36379,591 -66262,-28347 -66852,-64726 -1772,-108429 -42757,-198432 -107011,-263749 -69806,-70986 -167250,-113625 -272371,-120240l0 -118c-34608,-2126 -61892,-30946 -61656,-66144l1654 -202801c472,-36261 30237,-65317 66498,-64963 17481,236 35671,0 54333,-945l354 0c131579,-6142 256898,-41340 348554,-111972 82089,-63309 137721,-156973 146107,-286426l-150359 0 -326585 0 0 -237 -1181 0c-140201,-2126 -657777,-9803 -668407,467259zm2128295 -238472c3426,196778 -2480,392139 -44529,578404 -45710,203038 -133468,393438 -296348,560333 -10275,10394 -4960,5315 -9331,9685 -218038,217920 -506000,326231 -795025,325877 -288552,-237 -578049,-109020 -799395,-325286 -10394,-10040 -6142,-5788 -9921,-9567 -148470,-148352 -228315,-334735 -270009,-553010 -40041,-209298 -44647,-448006 -41930,-711400l-152131 -1739110c-8032,-90830 21969,-176699 76656,-241780 54214,-64726 132878,-109019 222999,-117405l3661 -354c90240,-7441 175400,22442 240126,76774 65199,54687 109728,134177 117642,225125l67088 766914 95791 -1095034c8032,-90948 52442,-170439 117641,-225126 64372,-53978 149060,-83861 238827,-76892 7559,118 16063,709 25630,1654 81617,8032 152367,50080 202330,110436 48899,59057 78191,136304 78191,216149 0,9331 -590,20079 -1772,32245l-129216 1308703c19843,-13465 41221,-24686 63545,-33663 42403,-17008 87995,-25631 133233,-25631 45119,0 90711,8623 133232,25631 78546,31655 145044,91420 177407,179297 59530,-56458 139847,-91184 227960,-91184 91420,0 174336,37324 234456,97444 60120,60120 97444,143036 97444,234456l0 443755c0,17835 -1417,35434 -4252,52560zm-666399 42521l0 -654705c0,-95318 -50789,-155911 -115633,-181896 -26221,-10512 -55041,-15827 -84215,-15827 -29293,0 -58113,5315 -84216,15827 -64962,25985 -115633,86578 -115633,181896l0 251700 150713 0 0 119c35080,0 64136,27638 65672,62954 4960,104059 -12402,193589 -46537,269536 -30356,67680 -73822,124020 -126619,169966 23859,47364 58821,76656 97444,90357 29057,10276 60475,12402 91184,7324 31419,-5197 61892,-17836 87877,-36852 46891,-34135 79963,-89530 79963,-160399zm-1468629 -178588c192881,-231149 553719,-226070 676321,-224180l0 -237 211896 0 182132 -1843758c473,-5079 709,-11576 709,-19371 0,-48781 -17954,-96027 -47836,-132170 -28820,-34843 -68743,-59057 -113626,-63545 -3780,-354 -8859,-472 -15473,-472 -2362,0 -4606,-119 -6851,-355 -54332,-4488 -105712,13583 -144689,46301 -39214,32836 -65908,80672 -70750,135359l-150832 1724463c-3071,36261 -35080,63191 -71459,60120l-15591 -118c-34489,0 -62718,-26339 -65553,-60002l-236 0 -122130 -1396343c-4843,-54805 -31537,-102523 -70750,-135477 -39214,-32835 -91066,-50907 -145871,-46182 -54687,4842 -102523,31536 -135359,70750 -32954,39214 -51025,91066 -46182,145871l152130 1739346z"/></g><text x="0" y="5000015" fill="#000000" font-size="5px" font-weight="bold" font-family="'Helvetica Neue', Helvetica, Arial-Unicode, Arial, Sans-serif">Created by abeldb</text><text x="0" y="5000020" fill="#000000" font-size="5px" font-weight="bold" font-family="'Helvetica Neue', Helvetica, Arial-Unicode, Arial, Sans-serif">from the Noun Project</text></svg>