<svg xmlns="http://www.w3.org/2000/svg" xmlns:xlink="http://www.w3.org/1999/xlink" xml:space="preserve" version="1.1" shape-rendering="geometricPrecision" text-rendering="geometricPrecision" image-rendering="optimizeQuality" fill-rule="evenodd" clip-rule="evenodd" viewBox="0 0 5000000 6250000" x="0px" y="0px"><g><path fill="black" fill-rule="nonzero" d="M3717637 2343499c-54805,0 -104767,22560 -141028,58703 -36261,36261 -58821,86223 -58821,141146l0 410091c0,54805 22560,104768 58821,141029 36261,36261 86223,58702 141028,58702 54923,0 104885,-22441 141146,-58702 36143,-36261 58703,-86224 58703,-141029l0 -410091c0,-54923 -22560,-104885 -58703,-141146 -36261,-36143 -86223,-58703 -141146,-58703zm-534230 -247803c91302,0 174337,37324 234457,97444 30827,30946 55749,67797 72522,108783 59529,-55986 139492,-90475 227251,-90475 91302,0 174336,37324 234456,97444 60120,60120 97444,143154 97444,234456 0,154847 591,309813 -945,464660 -4488,467141 2362,863413 -368161,1204408 -226897,208944 -514505,307451 -798923,300246 -284655,-7205 -565766,-120004 -779434,-333672 -377728,-377729 -754748,-756048 -1132358,-1133776 -25749,-25749 -25749,-67561 0,-93310 116224,-116224 269418,-174336 422611,-174336 143745,0 287608,51261 400997,153784l-153666 -1755764c-7914,-90829 21969,-176698 76656,-241779 54332,-64727 132878,-109019 222999,-117405l3780 -355c90121,-7441 175399,22442 240125,76774 65199,54687 109610,134178 117524,225126l67088 766914 95909 -1095035c7914,-90948 52324,-170320 117523,-225007 65199,-54687 150950,-84570 241780,-76656l0 0c90947,7914 170438,52324 225125,117523 54687,65199 84569,151068 76656,241780l-113390 1296537c50199,-30592 109138,-48309 171974,-48309zm310758 1102594c-16772,44765 -43111,85042 -76301,118350 -60120,60120 -143155,97444 -234457,97444 -91302,0 -174336,-37324 -234456,-97444 -60120,-60120 -97326,-143036 -97326,-234338 0,-219220 0,-437140 0,-654706 0,-453321 100161,-1116767 141737,-1591467 4725,-54805 -13347,-106539 -46301,-145871 -32599,-38860 -80081,-65553 -134295,-70514l-2244 -236c-54333,-4371 -105712,13583 -144690,46300 -39096,32836 -65908,80672 -70632,135359l-154021 1760252c-2953,34371 -31891,60356 -65789,60238l-15001 118c-34961,0 -63663,-27166 -65907,-61537l-125201 -1430950c-4725,-54687 -31537,-102523 -70632,-135359 -39332,-32954 -91066,-51025 -145871,-46183 -54805,4725 -102523,31419 -135359,70633 -32953,39331 -51025,91065 -46300,145870l161107 1841161c591,7323 1654,14528 3071,21614 1772,8741 3544,15828 5315,21261 3071,10040 3780,20197 2244,29883l72522 70160c225952,-32718 401942,-15592 541789,60710 148588,81026 251229,225007 324105,442691 11575,34489 -7087,71695 -41458,83271 -34489,11575 -71813,-7087 -83270,-41458 -62010,-184967 -145163,-305089 -262213,-368988 -118705,-64727 -277332,-75712 -488756,-41695 -20434,4016 -42403,-1771 -58466,-17362 -75593,-73231 -151186,-145871 -225598,-220283 -90475,-90475 -209770,-135713 -329184,-135713 -98507,0 -197014,30828 -279339,92483 360956,360957 721440,722621 1082396,1083578 189219,189336 437849,289261 689195,295639 251465,6260 505882,-80790 706676,-265638 275087,-253237 315246,-560215 323278,-895422 -55159,40867 -123311,65081 -196896,65081 -85869,0 -164415,-32954 -223472,-86932zm-310758 -970543c-54923,0 -104885,22442 -141146,58703 -36143,36261 -58702,86223 -58702,141146l0 654706c0,54805 22559,104767 58702,141028 36261,36261 86223,58703 141146,58703 54923,0 104886,-22442 141028,-58703 36261,-36261 58821,-86223 58821,-141028l0 -654706c0,-54923 -22560,-104885 -58821,-141146 -36142,-36261 -86105,-58703 -141028,-58703z"/></g><text x="0" y="5000015" fill="#000000" font-size="5px" font-weight="bold" font-family="'Helvetica Neue', Helvetica, Arial-Unicode, Arial, Sans-serif">Created by abeldb</text><text x="0" y="5000020" fill="#000000" font-size="5px" font-weight="bold" font-family="'Helvetica Neue', Helvetica, Arial-Unicode, Arial, Sans-serif">from the Noun Project</text></svg>