<svg xmlns="http://www.w3.org/2000/svg" xmlns:xlink="http://www.w3.org/1999/xlink" xml:space="preserve" version="1.1" shape-rendering="geometricPrecision" text-rendering="geometricPrecision" image-rendering="optimizeQuality" fill-rule="evenodd" clip-rule="evenodd" viewBox="0 0 5000000 6250000" x="0px" y="0px"><g><path fill="black" fill-rule="nonzero" d="M2507087 3395776c30473,19725 39214,60475 19371,90948 -19726,30473 -60475,39214 -90948,19371 -216857,-140674 -337688,-28466 -458164,83506 -71459,66380 -142918,132760 -234456,166187 -22442,11220 -45592,20315 -69924,26811 -42285,11339 -87404,15001 -136185,8387l-297411 -40159c-21497,-2835 -44293,-4252 -67916,-4252 -111263,0 -222290,34961 -308750,96263 -79963,56694 -138547,135713 -155083,229613 631201,96263 1262638,196187 1893485,292332 27520,4134 54450,7205 80908,9095 2244,118 4488,236 6732,472 142682,9213 286545,-11339 420958,-62128 129807,-49017 250992,-126145 353870,-231503 143981,-147288 221700,-316545 262449,-497260 40867,-181541 45001,-376429 40867,-573089l-354 -708c945,-133587 453321,-1160824 515685,-1311301 21025,-50789 19371,-105594 -236,-153076 -19134,-46183 -55513,-85278 -104649,-106657 -2244,-827 -4488,-1772 -6732,-2835 -49844,-19607 -103232,-17599 -149651,1654 -47245,19489 -87168,57049 -108192,107956l-412808 996055c-11103,26812 -37915,42403 -65435,40513l-97917 -118c-36379,0 -65789,-29529 -65789,-65790 0,-4133 354,-8149 1181,-12165l-118 0 254890 -1353232c10157,-53978 -2717,-107365 -31655,-149768 -28229,-41340 -71695,-72168 -123783,-83034 -2835,-355 -5552,-945 -8150,-1536 -52561,-8858 -104295,4134 -145517,32363 -42403,28938 -73821,73822 -83979,127800l-273197 1450793c-6260,32836 -35907,55514 -68506,53624l-52089 -118c-34607,0 -63072,-26812 -65553,-60829l-118 0 -132642 -1712062c-4252,-54804 -30473,-102759 -69333,-136067 -38977,-33308 -90593,-51852 -145516,-47600l-118 0c-54687,4252 -102641,30474 -135949,69333 -33309,38978 -51852,90594 -47600,145517l129334 1670131c2717,36379 -24567,68034 -60828,70632 -3426,354 -6851,354 -10040,0l-68152 -118c-29410,0 -54332,-19253 -62718,-45946l-236 118 -433361 -1372721c-16417,-52324 -52915,-93192 -98388,-116814 -45592,-23741 -99925,-30119 -152367,-13584l0 0c-52325,16536 -93192,53034 -116815,98508 -23623,45473 -30119,99924 -13583,152248l505173 1600208c2717,8623 3544,17481 2835,25985 -1536,141383 -827,275796 6614,402651 5315,91538 14292,178588 28820,260795 29883,-23740 59057,-50907 88349,-78073 157919,-146697 316428,-293867 619390,-97326zm-868020 -78191c-7441,-126382 -8149,-262095 -6732,-405485l-502221 -1590877c-27520,-87050 -16890,-177407 22324,-252764 38741,-74648 105594,-134650 191226,-162525 1890,-709 3898,-1299 5906,-1890 86105,-26339 175281,-15591 249929,23269 75357,39214 135949,107011 163470,194179l357295 1132122 -108783 -1404729c-6969,-90830 23859,-176344 79136,-240952 54451,-63664 132878,-106894 222290,-114925 2481,-355 4843,-473 7442,-591 89530,-6024 173627,24804 237409,79373 63663,54450 107011,132878 115043,222290 236,2244 472,4607 472,6969l110319 1423155 220755 -1172045c16890,-89766 68860,-164415 139020,-212251 70159,-47954 158509,-69214 248157,-52324l118 0c89767,16890 164297,68978 212251,139138 47954,70042 69215,158509 52325,248158l-222882 1183383 357768 -863413c34843,-84215 101223,-146579 179887,-179061 78310,-32481 169139,-35197 253355,-354l236 0c84215,34962 146461,101224 179061,179888 32481,78427 35198,169375 236,253590 -62719,151422 -507300,1181376 -505764,1246457l0 236c4843,209652 945,418360 -43702,616673 -45710,202920 -133587,393438 -296466,560215 -116933,119767 -254418,207290 -401824,262921 -152249,57522 -314892,80908 -475881,70396 -2244,0 -4607,-118 -6851,-354 -31418,-2244 -62010,-5670 -91892,-10158 -650572,-99098 -1301262,-202093 -1952188,-301309 -32836,-3779 -58466,-31654 -58466,-65553 0,-19843 1535,-40159 4252,-60829 18780,-138547 99570,-252763 211306,-332018 108665,-77128 247094,-121067 385051,-121067 27639,0 56222,1890 85515,5906l297293 40159c30237,4016 58230,1771 84687,-5315 13465,-3662 26576,-8505 39332,-14528 -20552,-100515 -32599,-208472 -39214,-323160z"/></g><text x="0" y="5000015" fill="#000000" font-size="5px" font-weight="bold" font-family="'Helvetica Neue', Helvetica, Arial-Unicode, Arial, Sans-serif">Created by abeldb</text><text x="0" y="5000020" fill="#000000" font-size="5px" font-weight="bold" font-family="'Helvetica Neue', Helvetica, Arial-Unicode, Arial, Sans-serif">from the Noun Project</text></svg>