<svg xmlns="http://www.w3.org/2000/svg" xmlns:xlink="http://www.w3.org/1999/xlink" xml:space="preserve" version="1.1" shape-rendering="geometricPrecision" text-rendering="geometricPrecision" image-rendering="optimizeQuality" fill-rule="evenodd" clip-rule="evenodd" viewBox="0 0 5000000 6250000" x="0px" y="0px"><g><path fill="black" fill-rule="nonzero" d="M3303884 2180738c-54923,0 -104886,22442 -141147,58703 -36261,36261 -58702,86223 -58702,141146l0 443754c0,54805 22441,104767 58702,141028 36261,36261 86224,58703 141147,58703 54804,0 104767,-22442 141028,-58703 36261,-36261 58820,-86223 58820,-141028l0 -443754c0,-54923 -22559,-104885 -58820,-141146 -36261,-36261 -86224,-58703 -141028,-58703zm-235874 876524c-23859,52797 -61065,96263 -105594,128744 -42875,31300 -92719,52088 -143981,60592 -52088,8623 -105948,4843 -156146,-12992 -64963,-23032 -123311,-68743 -163470,-140438 -98743,51616 -214849,78782 -334026,84924l-591 79491c113389,19489 217330,72286 295875,152131 86814,88349 142210,209061 144690,353987 591,36261 -28347,66144 -64726,66735 -36261,590 -66144,-28348 -66735,-64727 -1890,-108428 -42875,-198431 -107129,-263748 -69687,-70987 -167249,-113626 -272371,-120240l0 -118c-34607,-2126 -61892,-30946 -61655,-66144l1653 -202802c473,-36261 30237,-65317 66498,-64963 17481,237 35671,0 54451,-944l236 0c131579,-6142 257016,-41340 348554,-111973 82090,-63309 137721,-156973 146107,-286426l-150359 0 -2598 0 -1418 0 -322451 0 0 -236 -1181 0c-140201,-2126 -657776,-9804 -668407,467259 -118,4370 -590,8740 -1535,12992 5551,109256 15945,212015 34017,307569 36851,194416 106184,358830 234456,487102 9921,9803 4252,4488 8504,8622 196069,191463 452258,287844 707621,288080 254890,355 509189,-95318 701597,-287725 10276,-10394 3897,-3662 8268,-8150 143981,-147406 221700,-316664 262449,-497378 24213,-107366 35552,-219456 39922,-333790 -54804,39804 -122129,63427 -194651,63427 -91303,0 -174337,-37324 -234457,-97444l-1417 -1417zm-533521 -1036214c28584,-25985 61774,-46183 97444,-60474 42403,-17009 87995,-25631 133233,-25631 45237,0 90829,8622 133232,25631 78664,31654 145162,91420 177526,179297 59529,-56459 139847,-91184 227960,-91184 91302,0 174218,37324 234338,97444 60120,60120 97444,143036 97444,234456l0 443754c0,205164 -3662,431116 -48663,630965 -45710,203038 -133587,393437 -296466,560332 -10276,10394 -4961,5315 -9331,9686 -217921,217920 -506000,326230 -794907,325876 -288553,-236 -578050,-109019 -799395,-325286 -10395,-10039 -6261,-5787 -10040,-9567 -149060,-149060 -228905,-336389 -270481,-556199 -39923,-210597 -44175,-450604 -41340,-715298 -118,-1771 -236,-3425 -236,-5197l0 -1759189c0,-91302 37324,-174336 97444,-234456 60120,-60120 143036,-97444 234456,-97444 91302,0 174218,37324 234338,97444 60120,60120 97444,143154 97444,234456l0 916682c21497,-15236 44765,-27875 69215,-37678 42403,-17008 87995,-25513 133232,-25513 45238,0 90830,8505 133233,25513 73231,29410 135831,83270 170320,161580zm430526 898375l0 -654706c0,-95318 -50671,-155910 -115634,-181895 -26103,-10513 -54923,-15828 -84215,-15828 -29174,0 -58112,5315 -84215,15828 -64845,25985 -115634,86577 -115634,181895l0 251701 150713 0 0 118c35080,0 64254,27639 65790,62955 4843,104058 -12402,193588 -46655,269536 -30355,67679 -73821,124019 -126618,169966 23977,47363 58939,76656 97562,90357 28938,10276 60474,12402 91184,7323 31418,-5197 61773,-17835 87877,-36852 46773,-34135 79845,-89530 79845,-160398zm-933927 -755812l0 354106c104767,-6260 217211,-4488 325049,-2717 23741,473 47246,827 74648,1063l0 -352452c0,-95318 -50789,-155792 -115633,-181895 -26104,-10512 -55041,-15827 -84216,-15827 -29292,0 -58112,5315 -84215,15827 -64963,26103 -115633,86577 -115633,181895zm-132052 370524c0,-517339 -2598,-1035741 -2598,-1553671 0,-54923 -22442,-104885 -58703,-141146 -36261,-36143 -86223,-58703 -141028,-58703 -54923,0 -104885,22560 -141146,58703 -36261,36261 -58703,86223 -58703,141146l0 1759189 0 709c105948,-126618 262449,-182250 402178,-206227z"/></g><text x="0" y="5000015" fill="#000000" font-size="5px" font-weight="bold" font-family="'Helvetica Neue', Helvetica, Arial-Unicode, Arial, Sans-serif">Created by abeldb</text><text x="0" y="5000020" fill="#000000" font-size="5px" font-weight="bold" font-family="'Helvetica Neue', Helvetica, Arial-Unicode, Arial, Sans-serif">from the Noun Project</text></svg>